<svg width="15" height="15" viewBox="0 0 15 15" fill="none" xmlns="http://www.w3.org/2000/svg">
<path d="M7.5 0.9C3.86056 0.9 0.9 3.86056 0.9 7.5C0.9 11.1394 3.86056 14.1 7.5 14.1C11.1394 14.1 14.1 11.1394 14.1 7.5C14.1 3.86056 11.1394 0.9 7.5 0.9ZM7.5 13.3583C4.27002 13.3583 1.64167 10.73 1.64167 7.5C1.64167 4.27002 4.27002 1.64167 7.5 1.64167C10.73 1.64167 13.3583 4.27002 13.3583 7.5C13.3583 10.73 10.73 13.3583 7.5 13.3583Z" fill="#009247" stroke="#009247" stroke-width="0.2"/>
<path d="M2.83994 7.32561L2.83987 7.32573C2.78137 7.43532 2.78137 7.56652 2.83987 7.67612L2.83994 7.67625C3.79796 9.46448 5.58216 10.5798 7.49976 10.5798C9.41736 10.5798 11.2016 9.46447 12.1596 7.6757L12.1596 7.67557C12.2181 7.56598 12.2181 7.43478 12.1596 7.32519L12.1596 7.32505C11.2016 5.53683 9.41735 4.42148 7.49976 4.42148C5.58216 4.42148 3.79795 5.53683 2.83994 7.32561ZM7.49976 9.83815C5.92392 9.83815 4.44223 8.95028 3.59129 7.50065C4.44223 6.05102 5.92392 5.16315 7.49976 5.16315C9.0756 5.16315 10.5573 6.05102 11.4082 7.50065C10.5573 8.95028 9.0756 9.83815 7.49976 9.83815Z" fill="#009247" stroke="#009247" stroke-width="0.2"/>
<path d="M6.99646 6.14096L6.80463 6.21174L6.97828 6.3197C7.11545 6.40498 7.20679 6.5553 7.20679 6.72661C7.20679 6.99199 6.99162 7.20673 6.72666 7.20673C6.55471 7.20673 6.40504 7.11586 6.31983 6.97835L6.21221 6.80467L6.14108 6.99622C6.08303 7.15255 6.046 7.32093 6.046 7.50065C6.046 8.30392 6.69689 8.95482 7.50016 8.95482C8.30343 8.95482 8.95433 8.30392 8.95433 7.50065C8.95433 6.69738 8.30343 6.04648 7.50016 6.04648C7.32047 6.04648 7.15215 6.08351 6.99646 6.14096Z" fill="#009247" stroke="#009247" stroke-width="0.2"/>
</svg>
