<svg width="25" height="16" viewBox="0 0 25 16" fill="none" xmlns="http://www.w3.org/2000/svg">
<path d="M12.8232 15.7339C11.6419 15.7339 10.5256 15.5916 9.47412 15.3071C8.42887 15.0226 7.45785 14.6453 6.56104 14.1753C5.67041 13.7052 4.86947 13.1888 4.1582 12.626C3.44694 12.0632 2.84082 11.4972 2.33984 10.9282C1.83887 10.3592 1.4554 9.8335 1.18945 9.35107C0.923503 8.86247 0.790527 8.46973 0.790527 8.17285C0.790527 7.87598 0.923503 7.48633 1.18945 7.00391C1.4554 6.5153 1.83887 5.98649 2.33984 5.41748C2.84701 4.84847 3.45622 4.28255 4.16748 3.71973C4.87874 3.15072 5.67969 2.63428 6.57031 2.17041C7.46712 1.70654 8.43815 1.33236 9.4834 1.04785C10.5286 0.763346 11.6419 0.621094 12.8232 0.621094C14.0107 0.621094 15.1302 0.763346 16.1816 1.04785C17.2393 1.33236 18.2134 1.70654 19.104 2.17041C20.0008 2.63428 20.8018 3.15072 21.5068 3.71973C22.2119 4.28255 22.8118 4.84847 23.3066 5.41748C23.8076 5.98649 24.188 6.5153 24.4478 7.00391C24.7137 7.48633 24.8467 7.87598 24.8467 8.17285C24.8467 8.46973 24.7137 8.86247 24.4478 9.35107C24.188 9.8335 23.8107 10.3592 23.3159 10.9282C22.8211 11.4972 22.2181 12.0632 21.5068 12.626C20.8018 13.1888 20.0039 13.7052 19.1133 14.1753C18.2227 14.6453 17.2485 15.0226 16.1909 15.3071C15.1333 15.5916 14.0107 15.7339 12.8232 15.7339ZM12.8232 14.1846C13.7633 14.1846 14.6694 14.0671 15.5415 13.832C16.4136 13.597 17.23 13.2878 17.9907 12.9043C18.7515 12.5208 19.4411 12.1003 20.0596 11.6426C20.6842 11.1849 21.2192 10.7303 21.6646 10.2788C22.1099 9.82731 22.4531 9.41602 22.6943 9.04492C22.9355 8.66764 23.0562 8.37695 23.0562 8.17285C23.0562 7.99967 22.9355 7.73682 22.6943 7.38428C22.4531 7.02555 22.1099 6.61735 21.6646 6.15967C21.2192 5.70199 20.6842 5.24121 20.0596 4.77734C19.4411 4.31348 18.7515 3.88363 17.9907 3.48779C17.23 3.08577 16.4136 2.76416 15.5415 2.52295C14.6694 2.28174 13.7633 2.16113 12.8232 2.16113C11.8708 2.16113 10.9585 2.28174 10.0864 2.52295C9.21436 2.76416 8.39486 3.08577 7.62793 3.48779C6.86719 3.88363 6.17757 4.31348 5.55908 4.77734C4.94059 5.24121 4.4056 5.70199 3.9541 6.15967C3.50879 6.61735 3.16553 7.02555 2.92432 7.38428C2.68929 7.73682 2.57178 7.99967 2.57178 8.17285C2.57178 8.37695 2.68929 8.66764 2.92432 9.04492C3.16553 9.41602 3.50879 9.82731 3.9541 10.2788C4.4056 10.7303 4.94059 11.1849 5.55908 11.6426C6.17757 12.1003 6.86719 12.5208 7.62793 12.9043C8.39486 13.2878 9.21436 13.597 10.0864 13.832C10.9585 14.0671 11.8708 14.1846 12.8232 14.1846ZM12.8232 12.9878C12.1491 12.9878 11.5182 12.861 10.9307 12.6074C10.3493 12.3538 9.83594 12.0075 9.39062 11.5684C8.9515 11.123 8.60824 10.6097 8.36084 10.0283C8.11344 9.44694 7.98975 8.82845 7.98975 8.17285C7.98975 7.27604 8.20312 6.46582 8.62988 5.74219C9.06283 5.01237 9.64421 4.43408 10.374 4.00732C11.11 3.58057 11.9264 3.36719 12.8232 3.36719C13.7139 3.36719 14.5241 3.58057 15.2539 4.00732C15.9837 4.43408 16.5651 5.01237 16.998 5.74219C17.431 6.46582 17.6475 7.27604 17.6475 8.17285C17.6475 8.82845 17.5238 9.44694 17.2764 10.0283C17.029 10.6097 16.6826 11.123 16.2373 11.5684C15.7982 12.0075 15.2848 12.3538 14.6973 12.6074C14.1159 12.861 13.4912 12.9878 12.8232 12.9878ZM12.8232 9.74072C13.2562 9.74072 13.6273 9.58919 13.9365 9.28613C14.252 8.97689 14.4097 8.60579 14.4097 8.17285C14.4097 7.73991 14.252 7.36882 13.9365 7.05957C13.6273 6.75033 13.2562 6.5957 12.8232 6.5957C12.3779 6.5957 12.0007 6.75033 11.6914 7.05957C11.3822 7.36882 11.2275 7.73991 11.2275 8.17285C11.2275 8.60579 11.3822 8.97689 11.6914 9.28613C12.0007 9.58919 12.3779 9.74072 12.8232 9.74072Z" fill="#8391A1"/>
<path d="M12.8232 15.7339C11.6419 15.7339 10.5256 15.5916 9.47412 15.3071C8.42887 15.0226 7.45785 14.6453 6.56104 14.1753C5.67041 13.7052 4.86947 13.1888 4.1582 12.626C3.44694 12.0632 2.84082 11.4972 2.33984 10.9282C1.83887 10.3592 1.4554 9.8335 1.18945 9.35107C0.923503 8.86247 0.790527 8.46973 0.790527 8.17285C0.790527 7.87598 0.923503 7.48633 1.18945 7.00391C1.4554 6.5153 1.83887 5.98649 2.33984 5.41748C2.84701 4.84847 3.45622 4.28255 4.16748 3.71973C4.87874 3.15072 5.67969 2.63428 6.57031 2.17041C7.46712 1.70654 8.43815 1.33236 9.4834 1.04785C10.5286 0.763346 11.6419 0.621094 12.8232 0.621094C14.0107 0.621094 15.1302 0.763346 16.1816 1.04785C17.2393 1.33236 18.2134 1.70654 19.104 2.17041C20.0008 2.63428 20.8018 3.15072 21.5068 3.71973C22.2119 4.28255 22.8118 4.84847 23.3066 5.41748C23.8076 5.98649 24.188 6.5153 24.4478 7.00391C24.7137 7.48633 24.8467 7.87598 24.8467 8.17285C24.8467 8.46973 24.7137 8.86247 24.4478 9.35107C24.188 9.8335 23.8107 10.3592 23.3159 10.9282C22.8211 11.4972 22.2181 12.0632 21.5068 12.626C20.8018 13.1888 20.0039 13.7052 19.1133 14.1753C18.2227 14.6453 17.2485 15.0226 16.1909 15.3071C15.1333 15.5916 14.0107 15.7339 12.8232 15.7339ZM12.8232 14.1846C13.7633 14.1846 14.6694 14.0671 15.5415 13.832C16.4136 13.597 17.23 13.2878 17.9907 12.9043C18.7515 12.5208 19.4411 12.1003 20.0596 11.6426C20.6842 11.1849 21.2192 10.7303 21.6646 10.2788C22.1099 9.82731 22.4531 9.41602 22.6943 9.04492C22.9355 8.66764 23.0562 8.37695 23.0562 8.17285C23.0562 7.99967 22.9355 7.73682 22.6943 7.38428C22.4531 7.02555 22.1099 6.61735 21.6646 6.15967C21.2192 5.70199 20.6842 5.24121 20.0596 4.77734C19.4411 4.31348 18.7515 3.88363 17.9907 3.48779C17.23 3.08577 16.4136 2.76416 15.5415 2.52295C14.6694 2.28174 13.7633 2.16113 12.8232 2.16113C11.8708 2.16113 10.9585 2.28174 10.0864 2.52295C9.21436 2.76416 8.39486 3.08577 7.62793 3.48779C6.86719 3.88363 6.17757 4.31348 5.55908 4.77734C4.94059 5.24121 4.4056 5.70199 3.9541 6.15967C3.50879 6.61735 3.16553 7.02555 2.92432 7.38428C2.68929 7.73682 2.57178 7.99967 2.57178 8.17285C2.57178 8.37695 2.68929 8.66764 2.92432 9.04492C3.16553 9.41602 3.50879 9.82731 3.9541 10.2788C4.4056 10.7303 4.94059 11.1849 5.55908 11.6426C6.17757 12.1003 6.86719 12.5208 7.62793 12.9043C8.39486 13.2878 9.21436 13.597 10.0864 13.832C10.9585 14.0671 11.8708 14.1846 12.8232 14.1846ZM12.8232 12.9878C12.1491 12.9878 11.5182 12.861 10.9307 12.6074C10.3493 12.3538 9.83594 12.0075 9.39062 11.5684C8.9515 11.123 8.60824 10.6097 8.36084 10.0283C8.11344 9.44694 7.98975 8.82845 7.98975 8.17285C7.98975 7.27604 8.20312 6.46582 8.62988 5.74219C9.06283 5.01237 9.64421 4.43408 10.374 4.00732C11.11 3.58057 11.9264 3.36719 12.8232 3.36719C13.7139 3.36719 14.5241 3.58057 15.2539 4.00732C15.9837 4.43408 16.5651 5.01237 16.998 5.74219C17.431 6.46582 17.6475 7.27604 17.6475 8.17285C17.6475 8.82845 17.5238 9.44694 17.2764 10.0283C17.029 10.6097 16.6826 11.123 16.2373 11.5684C15.7982 12.0075 15.2848 12.3538 14.6973 12.6074C14.1159 12.861 13.4912 12.9878 12.8232 12.9878ZM12.8232 9.74072C13.2562 9.74072 13.6273 9.58919 13.9365 9.28613C14.252 8.97689 14.4097 8.60579 14.4097 8.17285C14.4097 7.73991 14.252 7.36882 13.9365 7.05957C13.6273 6.75033 13.2562 6.5957 12.8232 6.5957C12.3779 6.5957 12.0007 6.75033 11.6914 7.05957C11.3822 7.36882 11.2275 7.73991 11.2275 8.17285C11.2275 8.60579 11.3822 8.97689 11.6914 9.28613C12.0007 9.58919 12.3779 9.74072 12.8232 9.74072Z" fill="black" fill-opacity="0.2"/>
</svg>
